<?xml version="1.0" standalone="no"?>
<!DOCTYPE svg PUBLIC "-//W3C//DTD SVG 20010904//EN"
 "http://www.w3.org/TR/2001/REC-SVG-20010904/DTD/svg10.dtd">
<svg version="1.0" xmlns="http://www.w3.org/2000/svg"
 width="770.000000pt" height="514.000000pt" viewBox="0 0 770.000000 514.000000"
 preserveAspectRatio="xMidYMid meet">
<metadata>
Created by potrace 1.16, written by Peter Selinger 2001-2019
</metadata>
<g transform="translate(0.000000,514.000000) scale(0.100000,-0.100000)"
fill="#000000" stroke="none">
<path d="M346 5103 c3 -21 25 -213 49 -428 164 -1419 362 -2407 585 -2916 23
-52 44 -100 47 -106 4 -10 -102 -13 -511 -13 -337 0 -516 -3 -516 -10 0 -7
180 -10 519 -10 l519 0 42 -73 c143 -243 292 -369 487 -413 102 -22 299 -14
478 21 333 64 479 85 708 100 l87 5 0 -630 c0 -413 3 -630 10 -630 7 0 10 217
10 630 l0 630 88 -5 c448 -29 790 -117 1177 -304 257 -124 394 -211 770 -489
341 -252 489 -341 623 -372 84 -19 196 -9 261 24 105 54 211 178 295 344 107
213 233 626 312 1025 l27 137 600 0 c581 0 600 -1 584 -18 -29 -32 -19 -33 38
-5 30 15 55 30 55 33 0 8 -111 62 -116 57 -3 -2 2 -10 11 -17 8 -7 15 -16 15
-21 0 -5 -259 -9 -591 -9 l-591 0 6 33 c73 357 210 1344 272 1949 l17 168 416
2 416 3 3 643 2 642 -1195 0 -1195 0 0 -645 0 -645 726 0 726 0 -4 -25 c-3
-16 -1 -25 7 -25 7 0 16 11 19 25 4 16 13 25 27 25 18 0 20 -5 15 -42 -4 -24
-15 -131 -27 -238 -29 -282 -83 -712 -130 -1040 -38 -268 -124 -790 -134 -817
-3 -10 -366 -13 -1765 -13 l-1760 0 0 1732 c0 1676 1 1731 18 1715 29 -26 33
-20 15 18 -13 27 -23 35 -43 35 -20 0 -30 -8 -43 -35 -18 -38 -14 -44 15 -18
17 16 18 -39 18 -1715 l0 -1732 -885 0 -885 0 -19 39 c-35 68 -102 242 -146
381 -145 450 -266 1051 -384 1896 -38 269 -121 944 -137 1112 -5 60 -10 72
-24 72 -15 0 -17 -7 -14 -37z m7184 -663 l0 -630 -1175 0 -1175 0 0 630 0 630
1175 0 1175 0 0 -630z m-4690 -2949 l0 -129 -56 15 c-31 8 -58 12 -61 9 -12
-12 11 -26 62 -37 46 -10 55 -16 55 -33 0 -21 -7 -22 -172 -34 -162 -11 -284
-30 -653 -97 -201 -37 -378 -40 -480 -8 -172 55 -300 173 -429 396 l-28 47
881 0 881 0 0 -129z m3190 89 c-24 -46 -24 -50 -7 -50 7 0 23 20 35 45 l22 45
150 0 150 0 -5 -22 c-3 -13 -19 -88 -35 -167 -124 -591 -276 -995 -444 -1181
-90 -100 -164 -135 -281 -135 -150 1 -290 72 -625 320 -272 201 -441 319 -573
398 -130 80 -398 212 -510 253 -61 23 -77 33 -74 46 4 13 -8 19 -54 31 -38 9
-59 11 -62 4 -4 -14 -103 10 -123 30 -18 19 -116 45 -124 34 -7 -13 -123 10
-136 27 -7 10 -39 15 -110 16 -143 4 -144 4 -138 19 7 18 -107 40 -118 23 -5
-6 1 -14 15 -18 12 -3 -10 -6 -50 -7 l-73 -1 0 165 0 165 1595 0 1595 0 -20
-40z m-2993 -296 c-3 -3 -12 -4 -19 -1 -8 3 -5 6 6 6 11 1 17 -2 13 -5z"/>
<path d="M6695 4865 c-74 -97 -71 -272 7 -360 35 -41 52 -38 22 3 -38 52 -49
94 -49 187 1 73 5 98 23 132 12 23 26 44 32 48 5 3 10 10 10 16 0 19 -20 8
-45 -26z"/>
<path d="M7020 4871 c38 -55 52 -101 52 -182 0 -79 -22 -150 -59 -191 -15 -16
-15 -18 0 -18 18 0 51 43 73 95 18 44 20 157 3 213 -12 42 -63 112 -80 112 -6
0 -1 -13 11 -29z"/>
<path d="M6450 4842 c-26 -28 -43 -62 -63 -124 -15 -47 -37 -98 -48 -113 -25
-31 -20 -41 12 -25 18 10 37 10 89 0 57 -11 70 -10 96 3 36 19 57 42 52 58 -2
7 -15 1 -34 -14 -29 -25 -31 -25 -88 -12 -32 8 -60 15 -61 17 -6 5 50 171 66
196 18 29 53 26 57 -5 4 -27 15 -29 36 -7 19 18 19 20 6 45 -8 13 -21 19 -47
19 -29 0 -43 -8 -73 -38z"/>
<path d="M6857 4853 c-41 -44 -67 -111 -67 -176 0 -73 12 -97 48 -97 78 0 158
196 114 278 -18 31 -61 29 -95 -5z m71 -28 c6 -69 -3 -85 -48 -85 -22 0 -40 5
-40 10 0 18 30 84 47 102 24 26 38 17 41 -27z m-18 -117 c-1 -21 -36 -92 -53
-106 -23 -20 -37 -6 -37 36 0 70 8 82 51 82 25 0 39 -5 39 -12z"/>
<path d="M5310 4715 c0 -13 47 -15 365 -15 318 0 365 2 365 15 0 13 -47 15
-365 15 -318 0 -365 -2 -365 -15z"/>
<path d="M6405 4315 c-74 -97 -71 -272 7 -360 35 -41 52 -38 22 3 -38 52 -49
94 -49 187 1 73 5 98 23 132 12 23 26 44 32 48 5 3 10 10 10 16 0 19 -20 8
-45 -26z"/>
<path d="M6740 4140 c0 -133 4 -210 10 -210 6 0 10 77 10 210 0 133 -4 210
-10 210 -6 0 -10 -77 -10 -210z"/>
<path d="M7190 4321 c38 -55 52 -101 52 -182 0 -79 -22 -150 -59 -191 -15 -16
-15 -18 0 -18 18 0 51 43 73 95 18 44 20 157 3 213 -12 42 -63 112 -80 112 -6
0 -1 -13 11 -29z"/>
<path d="M6231 4304 c-25 -32 -61 -126 -61 -161 0 -15 -10 -37 -22 -50 -22
-24 -18 -44 5 -25 11 9 16 6 25 -13 9 -18 19 -25 41 -25 29 0 90 39 62 40 -8
0 -22 -7 -32 -16 -26 -23 -49 -11 -49 26 0 20 13 49 39 83 45 59 61 95 61 138
0 24 -4 29 -24 29 -14 0 -33 -11 -45 -26z m53 -22 c-8 -33 -48 -104 -68 -121
-14 -12 -14 -7 0 40 24 81 49 123 65 113 5 -3 6 -17 3 -32z"/>
<path d="M6567 4303 c-41 -44 -67 -111 -67 -176 0 -73 12 -97 48 -97 78 0 158
196 114 278 -18 31 -61 29 -95 -5z m71 -28 c6 -69 -3 -85 -48 -85 -22 0 -40 5
-40 10 0 18 30 84 47 102 24 26 38 17 41 -27z m-18 -117 c-1 -21 -36 -92 -53
-106 -23 -20 -37 -6 -37 36 0 70 8 82 51 82 25 0 39 -5 39 -12z"/>
<path d="M6897 4303 c-41 -44 -67 -111 -67 -176 0 -73 12 -97 48 -97 78 0 158
196 114 278 -18 31 -61 29 -95 -5z m71 -28 c6 -69 -3 -85 -48 -85 -22 0 -40 5
-40 10 0 18 30 84 47 102 24 26 38 17 41 -27z m-18 -117 c-1 -21 -36 -92 -53
-106 -23 -20 -37 -6 -37 36 0 70 8 82 51 82 25 0 39 -5 39 -12z"/>
<path d="M5317 4173 c-17 -17 -2 -23 53 -23 47 0 60 3 60 15 0 11 -13 15 -53
15 -30 0 -57 -3 -60 -7z"/>
<path d="M5570 4165 c0 -12 13 -15 60 -15 47 0 60 3 60 15 0 12 -13 15 -60 15
-47 0 -60 -3 -60 -15z"/>
<path d="M5827 4174 c-18 -18 -2 -24 59 -24 48 0 65 3 62 13 -5 13 -109 23
-121 11z"/>
<path d="M7069 4130 c-7 -20 -18 -30 -32 -31 -17 -1 -18 -2 -4 -6 14 -4 17
-14 15 -61 -3 -51 -1 -57 18 -60 23 -3 54 21 53 41 0 7 -7 2 -16 -10 -14 -21
-43 -32 -43 -17 0 34 26 97 44 104 18 8 18 9 3 9 -15 1 -17 6 -12 31 4 20 3
30 -5 30 -6 0 -16 -13 -21 -30z"/>
<path d="M2264 1598 c-7 -11 16 -32 67 -62 21 -12 28 -13 32 -3 6 17 -90 81
-99 65z"/>
<path d="M2480 1469 c0 -17 104 -59 112 -45 5 7 -10 19 -40 33 -53 25 -72 28
-72 12z"/>
<path d="M5901 1374 c-22 -30 -30 -49 -23 -56 6 -6 20 5 41 34 33 46 38 61 24
65 -5 2 -24 -17 -42 -43z"/>
<path d="M5740 1194 c-23 -22 -41 -47 -38 -54 3 -10 17 -2 48 26 23 22 41 47
38 54 -3 10 -17 2 -48 -26z"/>
<path d="M3965 1109 c-9 -14 -9 -13 54 -27 44 -10 56 -10 62 0 6 9 -2 15 -29
20 -20 5 -47 10 -59 13 -12 3 -25 0 -28 -6z"/>
<path d="M5522 1052 c-35 -15 -50 -28 -44 -34 10 -10 112 28 112 43 0 17 -17
15 -68 -9z"/>
<path d="M4214 1059 c-8 -14 -7 -15 56 -27 41 -7 57 -7 62 1 8 13 -9 19 -74
30 -21 3 -40 1 -44 -4z"/>
<path d="M4470 1012 c0 -7 10 -14 23 -16 64 -13 87 -14 93 -5 9 15 3 18 -59
25 -39 5 -57 3 -57 -4z"/>
<path d="M4720 976 c0 -11 9 -16 29 -16 16 0 43 -3 60 -6 24 -5 31 -3 31 10 0
10 -8 16 -22 16 -13 0 -40 3 -60 6 -31 5 -38 4 -38 -10z"/>
<path d="M5263 983 c-21 -3 -33 -10 -33 -20 0 -12 8 -13 43 -8 60 9 77 15 77
26 0 9 -25 10 -87 2z"/>
<path d="M4970 955 c0 -12 13 -15 60 -15 47 0 60 3 60 15 0 12 -13 15 -60 15
-47 0 -60 -3 -60 -15z"/>
<path d="M1050 5118 c0 -51 13 -98 27 -98 11 0 12 9 8 38 -11 68 -15 82 -25
82 -6 0 -10 -10 -10 -22z"/>
<path d="M1085 4848 c9 -62 15 -78 27 -78 7 0 9 16 4 46 -3 26 -6 53 -6 60 0
8 -7 14 -16 14 -13 0 -15 -8 -9 -42z"/>
<path d="M1124 4603 c3 -21 6 -48 6 -60 0 -14 6 -23 16 -23 13 0 15 8 9 53 -8
58 -12 67 -27 67 -7 0 -8 -14 -4 -37z"/>
<path d="M1165 4378 c-9 -24 8 -101 24 -106 10 -3 12 7 6 49 -8 58 -21 82 -30
57z"/>
<path d="M1212 4131 c-10 -6 -10 -18 0 -64 8 -36 17 -54 24 -49 16 11 -7 124
-24 113z"/>
<path d="M1250 3871 c0 -5 5 -33 11 -61 8 -35 14 -49 21 -42 14 14 -3 104 -19
110 -7 2 -13 -1 -13 -7z"/>
<path d="M1300 3621 c0 -5 5 -32 11 -60 7 -33 15 -48 23 -45 10 4 11 15 1 56
-6 29 -17 54 -23 56 -7 2 -12 -1 -12 -7z"/>
<path d="M6573 3550 c-7 -45 -6 -60 3 -64 8 -3 15 14 22 52 6 31 8 60 5 65
-11 19 -21 2 -30 -53z"/>
<path d="M1364 3383 c-8 -3 -8 -18 1 -55 12 -53 36 -78 34 -36 -1 38 -23 95
-35 91z"/>
<path d="M6536 3333 c-13 -47 -17 -91 -8 -97 15 -9 20 3 28 62 4 34 3 52 -4
52 -6 0 -13 -8 -16 -17z"/>
<path d="M1420 3125 c0 -34 25 -105 37 -105 16 0 16 5 -2 68 -15 49 -35 70
-35 37z"/>
<path d="M6482 3048 c-5 -29 -8 -56 -5 -60 11 -19 21 -5 28 38 3 26 9 53 12
60 3 8 -1 14 -10 14 -9 0 -18 -18 -25 -52z"/>
<path d="M1502 2830 c13 -40 24 -58 30 -52 15 15 -14 106 -34 110 -15 3 -15
-3 4 -58z"/>
<path d="M6430 2803 c-8 -37 -9 -58 -2 -65 10 -10 16 6 35 89 3 13 -1 24 -9
27 -9 3 -16 -12 -24 -51z"/>
<path d="M1578 2603 c11 -26 21 -53 23 -60 2 -7 9 -9 16 -5 17 11 -19 106 -41
110 -15 3 -14 -2 2 -45z"/>
<path d="M6371 2554 c-12 -54 -9 -77 8 -58 11 12 31 96 25 106 -12 19 -22 5
-33 -48z"/>
<path d="M1666 2411 c-7 -11 32 -111 44 -111 18 0 17 15 -5 61 -27 59 -31 64
-39 50z"/>
<path d="M6306 2307 c-19 -66 -19 -67 -3 -67 7 0 19 22 26 50 15 59 15 64 3
68 -6 2 -17 -21 -26 -51z"/>
<path d="M1776 2181 c-11 -17 44 -110 60 -104 11 4 8 15 -13 52 -34 59 -39 65
-47 52z"/>
<path d="M6231 2066 c-25 -67 -25 -66 -7 -66 19 0 52 98 38 112 -7 7 -17 -9
-31 -46z"/>
<path d="M4893 2078 c-71 -78 -80 -207 -14 -216 29 -5 59 22 82 73 21 45 25
135 7 153 -19 19 -53 14 -75 -10z m59 -6 c3 -10 3 -32 0 -50 -4 -29 -8 -32
-38 -32 -19 0 -34 5 -34 11 0 23 44 89 60 89 4 0 10 -8 12 -18z m-17 -124 c-8
-28 -37 -70 -52 -75 -16 -6 -26 32 -18 67 6 26 11 30 41 30 32 0 35 -2 29 -22z"/>
<path d="M7427 2043 c-41 -44 -67 -111 -67 -176 0 -73 12 -97 48 -97 78 0 158
196 114 278 -18 31 -61 29 -95 -5z m71 -28 c6 -69 -3 -85 -48 -85 -22 0 -40 5
-40 10 0 18 30 84 47 102 24 26 38 17 41 -27z m-18 -117 c-1 -21 -36 -92 -53
-106 -23 -20 -37 -6 -37 36 0 70 8 82 51 82 25 0 39 -5 39 -12z"/>
<path d="M3343 2038 c-71 -78 -80 -207 -14 -216 29 -5 59 22 82 73 21 45 25
135 7 153 -19 19 -53 14 -75 -10z m59 -6 c3 -10 3 -32 0 -50 -4 -29 -8 -32
-38 -32 -19 0 -34 5 -34 11 0 23 44 89 60 89 4 0 10 -8 12 -18z m-17 -124 c-8
-28 -37 -70 -52 -75 -16 -6 -26 32 -18 67 6 26 11 30 41 30 32 0 35 -2 29 -22z"/>
<path d="M5230 1935 l-5 -50 -50 -6 -50 -5 50 -5 50 -4 6 -45 6 -45 1 47 2 47
48 4 47 3 -47 2 -47 2 -3 53 -4 52 -4 -50z"/>
<path d="M5403 1973 c-13 -2 -23 -9 -23 -14 0 -6 9 -7 20 -4 19 6 20 2 20 -60
0 -59 -2 -67 -22 -75 -18 -7 -11 -9 32 -9 43 0 50 2 33 9 -21 9 -23 16 -23 85
0 41 -3 74 -7 74 -5 -1 -18 -4 -30 -6z"/>
<path d="M1906 1961 c-6 -8 44 -84 63 -95 25 -16 17 16 -15 58 -37 49 -40 51
-48 37z"/>
<path d="M5044 1945 c-4 -16 -14 -25 -28 -26 -16 -1 -17 -2 -4 -6 14 -3 17
-14 15 -51 -2 -41 1 -47 19 -50 11 -2 28 6 39 18 22 24 9 27 -17 3 -25 -23
-31 -12 -18 36 8 32 16 41 33 42 17 1 18 2 5 6 -11 3 -18 14 -18 29 0 32 -18
31 -26 -1z"/>
<path d="M3494 1915 c-4 -16 -14 -25 -28 -26 -16 -1 -17 -2 -4 -6 14 -3 17
-14 15 -51 -2 -41 1 -47 19 -50 11 -2 28 6 39 18 22 24 9 27 -17 3 -25 -23
-31 -12 -18 36 8 32 16 41 33 42 17 1 18 2 5 6 -11 3 -18 14 -18 29 0 32 -18
31 -26 -1z"/>
<path d="M6141 1823 c-25 -65 -25 -63 -6 -63 8 0 15 2 15 5 0 2 9 27 20 54 15
39 16 50 6 54 -9 4 -21 -13 -35 -50z"/>
<path d="M2066 1762 c-3 -5 14 -28 38 -51 57 -55 75 -37 20 20 -39 40 -49 45
-58 31z"/>
</g>
</svg>
